<svg width="29" height="24" viewBox="0 0 29 24" fill="none" xmlns="http://www.w3.org/2000/svg">
<path d="M0.309744 20.1399C2.78975 19.9399 4.68974 19.1599 6.00974 17.7999C7.28974 16.4399 8.00975 14.8199 8.16974 12.9399C7.80975 13.0999 7.44975 13.1999 7.08975 13.2399C6.68975 13.3199 6.30975 13.3599 5.94975 13.3599C4.10975 13.3599 2.66974 12.7399 1.62974 11.4999C0.589743 10.2599 0.0697422 8.75992 0.0697422 6.99992C0.0697422 5.03992 0.649744 3.43992 1.80975 2.19992C2.96975 0.959921 4.54975 0.339922 6.54975 0.339922C8.50975 0.339922 10.1297 1.03992 11.4097 2.43992C12.6897 3.83992 13.3297 5.91992 13.3297 8.67992C13.3297 12.2399 12.7897 15.1199 11.7097 17.3199C10.5897 19.5599 9.04975 21.1999 7.08975 22.2399C5.08975 23.2799 2.82974 23.8399 0.309744 23.9199V20.1399ZM15.9697 20.1399C18.4497 19.9399 20.3497 19.1599 21.6697 17.7999C22.9897 16.4399 23.7297 14.8199 23.8897 12.9399C23.4897 13.0999 23.1097 13.1999 22.7497 13.2399C22.3497 13.3199 21.9697 13.3599 21.6097 13.3599C19.7697 13.3599 18.3297 12.7399 17.2897 11.4999C16.2497 10.2599 15.7297 8.75992 15.7297 6.99992C15.7297 5.03992 16.3097 3.43992 17.4697 2.19992C18.6297 0.959921 20.2297 0.339922 22.2697 0.339922C24.1897 0.339922 25.7897 1.03992 27.0697 2.43992C28.3497 3.83992 28.9897 5.91992 28.9897 8.67992C28.9897 12.2399 28.4497 15.1199 27.3697 17.3199C26.2497 19.5599 24.7097 21.1999 22.7497 22.2399C20.7897 23.2799 18.5297 23.8399 15.9697 23.9199V20.1399Z" fill="black"/>
</svg>
