<svg xmlns="http://www.w3.org/2000/svg" viewBox="0 0 142 18" xmlns:v="https://vecta.io/nano"><g fill-rule="evenodd"><path d="M20.5 3v10.5H26V17h-9V3zm12 4.5L35 3h4v.5L34.2 11v6h-3.4v-6L26 3.5V3h4l2.5 4.5zM43 3l5 6 5-6h2v14h-3.5v-6.5L48.3 14h-.5l-3.3-3.5V17H41V3zm21 0c6.7 0 6.7 10 0 10h-2.5v4H58V3h6zm.2 3h-2.7v4h2.7c2.1 0 2.1-4 0-4zm10.8.5V3h10v3.5h-3.2V17h-3.6V6.5zM94 3c6 0 7 7 3 9l3 4.5v.5h-4l-2.5-4h-2v4H88V3h6zm.2 3h-2.8v3.5h2.8c2.1 0 2.1-3.5 0-3.5zM110 3l6 13.5v.5h-3.5l-.8-1.8h-5.4l-.8 1.8H102v-.5L108 3h2zm-1 5.5l-1.8 4h3.5l-1.7-4zM123.2 3c9 0 9 14 0 14H118V3h5.2zm0 3.5h-1.8v7h1.8c4.5 0 4.5-7 0-7zm13.3 7.5h5.5v3h-9V3h9v3h-5.5v2.5h4.5v3h-4.5zM14 10c0 2.4-.9 4.1-2.2 5.3l-2.3-2.5c.6-.6 1-1.5 1-2.7 0-5-7-5-7 0 0 1.2.4 2.1 1 2.7l-2.3 2.5C.9 14.1 0 12.4 0 10 0 .7 14 .7 14 10z" fill="#fff"/><path d="M53 0l-5 6-5-6z" fill="#f15131"/></g><path d="M2 18l5-6 5 6z" fill="#1fbf75"/></svg>