<svg width="29" height="24" viewBox="0 0 29 24" fill="rgba(0,0,0,0.2)" xmlns="http://www.w3.org/2000/svg">
<path d="M28.7498 4.11985C26.2698 4.31984 24.3698 5.09984 23.0498 6.45984C21.7698 7.81984 21.0498 9.43984 20.8898 11.3198C21.2498 11.1598 21.6098 11.0598 21.9698 11.0198C22.3698 10.9398 22.7498 10.8998 23.1098 10.8998C24.9498 10.8998 26.3898 11.5198 27.4298 12.7598C28.4698 13.9998 28.9898 15.4998 28.9898 17.2598C28.9898 19.2198 28.4098 20.8198 27.2498 22.0598C26.0898 23.2998 24.5098 23.9198 22.5098 23.9198C20.5498 23.9198 18.9298 23.2198 17.6498 21.8198C16.3698 20.4198 15.7298 18.3398 15.7298 15.5798C15.7298 12.0198 16.2698 9.13984 17.3498 6.93984C18.4698 4.69984 20.0098 3.05984 21.9698 2.01984C23.9698 0.979843 26.2298 0.419843 28.7498 0.339844V4.11985ZM13.0898 4.11985C10.6098 4.31984 8.70982 5.09984 7.38982 6.45984C6.06982 7.81984 5.32982 9.43984 5.16982 11.3198C5.56982 11.1598 5.94982 11.0598 6.30982 11.0198C6.70982 10.9398 7.08982 10.8998 7.44982 10.8998C9.28982 10.8998 10.7298 11.5198 11.7698 12.7598C12.8098 13.9998 13.3298 15.4998 13.3298 17.2598C13.3298 19.2198 12.7498 20.8198 11.5898 22.0598C10.4298 23.2998 8.82982 23.9198 6.78982 23.9198C4.86982 23.9198 3.26982 23.2198 1.98982 21.8198C0.709824 20.4198 0.0698242 18.3398 0.0698242 15.5798C0.0698242 12.0198 0.609824 9.13984 1.68982 6.93984C2.80982 4.69984 4.34982 3.05984 6.30982 2.01984C8.26982 0.979843 10.5298 0.419843 13.0898 0.339844V4.11985Z" />
</svg>
